<?xml version="1.0" encoding="UTF-8" standalone="no"?>
<!DOCTYPE svg PUBLIC "-//W3C//DTD SVG 1.1//EN"
 "http://www.w3.org/Graphics/SVG/1.1/DTD/svg11.dtd">
<!-- Generated by graphviz version 2.38.0 (20140413.2041)
 -->
<!-- Title: G Pages: 1 -->
<svg width="403pt" height="420pt"
 viewBox="0.00 0.00 403.00 420.00" xmlns="http://www.w3.org/2000/svg" xmlns:xlink="http://www.w3.org/1999/xlink">
<g id="graph0" class="graph" transform="scale(1 1) rotate(0) translate(4 416)">
<title>G</title>
<polygon fill="white" stroke="none" points="-4,4 -4,-416 399,-416 399,4 -4,4"/>
<g id="clust1" class="cluster"><title>cluster_Global</title>
<path fill="none" stroke="gray" d="M20,-8C20,-8 375,-8 375,-8 381,-8 387,-14 387,-20 387,-20 387,-392 387,-392 387,-398 381,-404 375,-404 375,-404 20,-404 20,-404 14,-404 8,-398 8,-392 8,-392 8,-20 8,-20 8,-14 14,-8 20,-8"/>
<text text-anchor="middle" x="197.5" y="-391.2" font-family="Times New Roman,serif" font-size="11.00" fill="gray">Global</text>
</g>
<g id="clust2" class="cluster"><title>cluster_\src</title>
<path fill="none" stroke="gray" d="M28,-16C28,-16 367,-16 367,-16 373,-16 379,-22 379,-28 379,-28 379,-364 379,-364 379,-370 373,-376 367,-376 367,-376 28,-376 28,-376 22,-376 16,-370 16,-364 16,-364 16,-28 16,-28 16,-22 22,-16 28,-16"/>
<text text-anchor="middle" x="197.5" y="-363.2" font-family="Times New Roman,serif" font-size="11.00" fill="gray">src</text>
</g>
<g id="clust3" class="cluster"><title>cluster_\src\application</title>
<path fill="none" stroke="gray" d="M36,-24C36,-24 359,-24 359,-24 365,-24 371,-30 371,-36 371,-36 371,-336 371,-336 371,-342 365,-348 359,-348 359,-348 36,-348 36,-348 30,-348 24,-342 24,-336 24,-336 24,-36 24,-36 24,-30 30,-24 36,-24"/>
<text text-anchor="middle" x="197.5" y="-335.2" font-family="Times New Roman,serif" font-size="11.00" fill="gray">application</text>
</g>
<g id="clust4" class="cluster"><title>cluster_\src\application\core</title>
<path fill="none" stroke="gray" d="M44,-32C44,-32 351,-32 351,-32 357,-32 363,-38 363,-44 363,-44 363,-308 363,-308 363,-314 357,-320 351,-320 351,-320 44,-320 44,-320 38,-320 32,-314 32,-308 32,-308 32,-44 32,-44 32,-38 38,-32 44,-32"/>
<text text-anchor="middle" x="197.5" y="-307.2" font-family="Times New Roman,serif" font-size="11.00" fill="gray">core</text>
</g>
<!-- \\src\\application\\core\\ClassLoader -->
<g id="node1" class="node"><title>\\src\\application\\core\\ClassLoader</title>
<polygon fill="none" stroke="black" points="355,-292 264,-292 264,-256 355,-256 355,-292"/>
<text text-anchor="middle" x="309.5" y="-271.2" font-family="Courier,monospace" font-size="11.00">ClassLoader</text>
</g>
<!-- \\src\\application\\core\\Get -->
<g id="node2" class="node"><title>\\src\\application\\core\\Get</title>
<polygon fill="none" stroke="black" points="336.5,-238 282.5,-238 282.5,-202 336.5,-202 336.5,-238"/>
<text text-anchor="middle" x="309.5" y="-217.2" font-family="Courier,monospace" font-size="11.00">Get</text>
</g>
<!-- \\src\\application\\core\\SuperGlobalVariables -->
<g id="node6" class="node"><title>\\src\\application\\core\\SuperGlobalVariables</title>
<polygon fill="none" stroke="black" points="192,-184 40,-184 40,-148 192,-148 192,-184"/>
<text text-anchor="start" x="82" y="-169.2" font-family="Courier,monospace" font-size="11.00">«abstract»</text>
<text text-anchor="start" x="48" y="-157.2" font-family="Courier,monospace" font-size="11.00">SuperGlobalVariables</text>
</g>
<!-- \\src\\application\\core\\Get&#45;&gt;\\src\\application\\core\\SuperGlobalVariables -->
<g id="edge1" class="edge"><title>\\src\\application\\core\\Get&#45;&gt;\\src\\application\\core\\SuperGlobalVariables</title>
<path fill="none" stroke="black" d="M282.274,-212.605C258.788,-205.982 223.193,-195.945 191.044,-186.879"/>
<polygon fill="none" stroke="black" points="191.769,-183.447 181.194,-184.102 189.869,-190.184 191.769,-183.447"/>
</g>
<!-- \\src\\application\\core\\Post -->
<g id="node3" class="node"><title>\\src\\application\\core\\Post</title>
<polygon fill="none" stroke="black" points="336.5,-184 282.5,-184 282.5,-148 336.5,-148 336.5,-184"/>
<text text-anchor="middle" x="309.5" y="-163.2" font-family="Courier,monospace" font-size="11.00">Post</text>
</g>
<!-- \\src\\application\\core\\Post&#45;&gt;\\src\\application\\core\\SuperGlobalVariables -->
<g id="edge2" class="edge"><title>\\src\\application\\core\\Post&#45;&gt;\\src\\application\\core\\SuperGlobalVariables</title>
<path fill="none" stroke="black" d="M282.274,-166C261.474,-166 231.176,-166 202.186,-166"/>
<polygon fill="none" stroke="black" points="202.004,-162.5 192.004,-166 202.004,-169.5 202.004,-162.5"/>
</g>
<!-- \\src\\application\\core\\Request -->
<g id="node4" class="node"><title>\\src\\application\\core\\Request</title>
<polygon fill="none" stroke="black" points="341.5,-130 277.5,-130 277.5,-94 341.5,-94 341.5,-130"/>
<text text-anchor="middle" x="309.5" y="-109.2" font-family="Courier,monospace" font-size="11.00">Request</text>
</g>
<!-- \\src\\application\\core\\Server -->
<g id="node5" class="node"><title>\\src\\application\\core\\Server</title>
<polygon fill="none" stroke="black" points="338,-76 281,-76 281,-40 338,-40 338,-76"/>
<text text-anchor="middle" x="309.5" y="-55.2" font-family="Courier,monospace" font-size="11.00">Server</text>
</g>
<!-- \\src\\application\\core\\Server&#45;&gt;\\src\\application\\core\\SuperGlobalVariables -->
<g id="edge3" class="edge"><title>\\src\\application\\core\\Server&#45;&gt;\\src\\application\\core\\SuperGlobalVariables</title>
<path fill="none" stroke="black" d="M280.654,-73.7041C248.427,-91.8794 195.055,-121.98 158.064,-142.841"/>
<polygon fill="none" stroke="black" points="156.026,-139.972 149.035,-147.933 159.465,-146.069 156.026,-139.972"/>
</g>
</g>
</svg>
